<svg width="53" height="53" viewBox="0 0 53 53" fill="none" xmlns="http://www.w3.org/2000/svg">
<g id="clarity:circle-arrow-line" clip-path="url(#clip0_801_21)">
<path id="Vector" d="M50.0556 26.5C50.0556 31.1588 48.674 35.7131 46.0857 39.5867C43.4974 43.4604 39.8185 46.4796 35.5143 48.2625C31.2101 50.0453 26.4739 50.5118 21.9045 49.6029C17.3352 48.694 13.138 46.4506 9.84371 43.1563C6.5494 39.862 4.30595 35.6648 3.39706 31.0954C2.48816 26.5261 2.95464 21.7899 4.7375 17.4857C6.52037 13.1814 9.53955 9.50256 13.4132 6.91425C17.2869 4.32593 21.8412 2.94442 26.5 2.94442C32.7473 2.94442 38.7388 5.42616 43.1563 9.84368C47.5738 14.2612 50.0556 20.2527 50.0556 26.5ZM5.88889 26.5C5.88889 30.5765 7.09771 34.5614 9.36249 37.9509C11.6273 41.3404 14.8463 43.9822 18.6125 45.5422C22.3787 47.1022 26.5229 47.5103 30.521 46.715C34.5192 45.9198 38.1917 43.9567 41.0743 41.0742C43.9568 38.1917 45.9198 34.5192 46.7151 30.521C47.5104 26.5228 47.1022 22.3786 45.5422 18.6124C43.9822 14.8463 41.3404 11.6272 37.9509 9.36246C34.5614 7.09768 30.5765 5.88886 26.5 5.88886C21.0336 5.88886 15.7911 8.06039 11.9257 11.9257C8.06041 15.7911 5.88889 21.0336 5.88889 26.5Z" fill="#091E29"/>
<path id="Vector_2" d="M40.8394 26.3822L29.6358 37.5859C29.5039 37.74 29.3414 37.8651 29.1588 37.9535C28.9761 38.0419 28.7772 38.0915 28.5744 38.0994C28.3717 38.1072 28.1695 38.073 27.9806 37.999C27.7917 37.925 27.6201 37.8127 27.4766 37.6693C27.3331 37.5258 27.2209 37.3542 27.1468 37.1653C27.0728 36.9764 27.0387 36.7742 27.0465 36.5714C27.0543 36.3687 27.104 36.1697 27.1924 35.9871C27.2807 35.8044 27.4059 35.642 27.56 35.51L35.0683 27.9722H12.985C12.5945 27.9722 12.2201 27.8171 11.944 27.541C11.6679 27.2649 11.5128 26.8905 11.5128 26.5C11.5128 26.1096 11.6679 25.7351 11.944 25.459C12.2201 25.1829 12.5945 25.0278 12.985 25.0278H35.3333L27.56 17.2545C27.4059 17.1225 27.2807 16.9601 27.1924 16.7774C27.104 16.5948 27.0543 16.3958 27.0465 16.1931C27.0387 15.9903 27.0728 15.7881 27.1468 15.5992C27.2209 15.4103 27.3331 15.2387 27.4766 15.0952C27.6201 14.9518 27.7917 14.8395 27.9806 14.7655C28.1695 14.6915 28.3717 14.6573 28.5744 14.6651C28.7772 14.673 28.9761 14.7226 29.1588 14.811C29.3414 14.8994 29.5039 15.0245 29.6358 15.1786L40.8394 26.3822Z" fill="#091E29"/>
</g>
<defs>
<clipPath id="clip0_801_21">
<rect width="53" height="53" fill="white" transform="matrix(0 -1 -1 0 53 53)"/>
</clipPath>
</defs>
</svg>
