<svg width="33" height="32" viewBox="0 0 33 32" fill="none" xmlns="http://www.w3.org/2000/svg">
<g id="mdi:facebook">
<path id="Vector" d="M16.7734 2.72021C9.44006 2.72021 3.44006 8.70688 3.44006 16.0802C3.44006 22.7469 8.32006 28.2802 14.6934 29.2802V19.9469H11.3067V16.0802H14.6934V13.1335C14.6934 9.78688 16.6801 7.94688 19.7334 7.94688C21.1867 7.94688 22.7067 8.20022 22.7067 8.20022V11.4935H21.0267C19.3734 11.4935 18.8534 12.5202 18.8534 13.5735V16.0802H22.5601L21.9601 19.9469H18.8534V29.2802C21.9953 28.784 24.8563 27.1809 26.92 24.7603C28.9836 22.3397 30.1139 19.2611 30.1067 16.0802C30.1067 8.70688 24.1067 2.72021 16.7734 2.72021Z" fill="white"/>
</g>
</svg>
