<svg width="38" height="38" viewBox="0 0 38 38" fill="none" xmlns="http://www.w3.org/2000/svg">
<path id="Union" fill-rule="evenodd" clip-rule="evenodd" d="M18.7773 0.645888C18.1909 0.875966 18.0945 1.76659 18.6363 2.0412C19.4304 2.45683 20.2023 1.54393 19.6159 0.89081C19.4081 0.660732 19.0148 0.549404 18.7773 0.645888ZM14.918 1.15792C9.58906 2.56808 5.28437 6.99894 3.9707 12.4317C3.82969 12.9958 3.74805 13.2036 3.62188 13.2853C3.26562 13.5228 2.95391 13.8345 2.7832 14.1314C2.56797 14.5025 0.289453 20.1505 0.141016 20.67C0.0742188 20.915 0.0371094 21.4196 0.0445312 22.1915V23.3419L0.912891 26.422C1.43984 28.2849 1.78125 29.6282 1.78125 29.836C1.78125 30.0439 1.44727 31.3353 0.890625 33.2649C0.400781 34.9646 0 36.4786 0 36.6271C0 36.9759 0.0964844 37.154 0.371094 37.295C0.675391 37.4509 7.43672 37.4657 7.81523 37.3025C8.075 37.1985 8.08984 37.1763 8.63164 35.8032C8.98789 34.9052 9.40352 34.2224 10.0641 33.4728C10.9027 32.5228 11.4742 31.454 11.6598 30.504C11.7117 30.2368 11.7785 29.9993 11.8008 29.9622C11.8305 29.9325 12.1645 30.0587 12.5504 30.2368C13.8863 30.8677 15.5859 31.3501 17.1816 31.5431C18.0352 31.647 20.0391 31.647 20.8926 31.5431C22.5031 31.3501 24.1879 30.8751 25.5016 30.2517C25.9691 30.029 26.2141 29.9474 26.2289 30.0068C26.2437 30.0587 26.2957 30.2962 26.3477 30.5411C26.5332 31.4689 27.1121 32.545 27.9359 33.4728C28.5965 34.2224 29.0121 34.9052 29.3684 35.8032C29.9102 37.1763 29.925 37.1985 30.1848 37.3025C30.5633 37.4657 37.3246 37.4509 37.6289 37.295C37.9035 37.154 38 36.9759 38 36.6271C38 36.4786 37.5992 34.9646 37.1094 33.2575C36.5602 31.3501 36.2188 30.0364 36.2188 29.8286C36.2188 29.6282 36.5602 28.2775 37.0871 26.422L37.9555 23.3419V22.1544C37.9629 21.2118 37.9332 20.8778 37.8293 20.5364C37.5621 19.6903 35.3281 14.2798 35.1203 13.9903C35.009 13.8271 34.7789 13.597 34.6156 13.4708C34.3336 13.2556 34.3113 13.211 34.1109 12.3946C33.0645 8.06026 30.0215 4.25284 26.0063 2.24151C24.6555 1.56612 22.6293 0.912998 22.1246 0.994639C21.7461 1.05401 21.5234 1.32862 21.5234 1.75167C21.5234 2.1673 21.7312 2.4048 22.1988 2.52355C23.8391 2.93175 25.843 3.83722 27.0379 4.69815C29.0195 6.13058 30.4371 7.77081 31.491 9.8712C31.966 10.8138 32.582 12.4317 32.582 12.736C32.582 12.788 32.493 12.8548 32.3816 12.8845C30.9937 13.1739 30.1328 14.2501 30.1328 15.6677C30.1328 16.254 30.1477 16.306 30.9566 18.3544C31.1491 18.8435 31.3295 19.3004 31.4745 19.6675L31.4751 19.6691C31.6708 20.1646 31.8016 20.496 31.8102 20.5216C31.8324 20.5661 31.5207 20.5958 30.9715 20.5958C30.1773 20.5958 30.0586 20.6181 29.6727 20.7962C29.2125 21.0114 28.6559 21.479 28.4332 21.8501C28.2922 22.0802 26.6965 26.6966 26.4516 27.5798L26.4498 27.5861C26.3254 28.0326 26.3229 28.0414 25.7984 28.3442C21.7164 30.6747 16.2316 30.6525 12.1645 28.2775C11.734 28.0251 11.6375 27.9286 11.6004 27.7357C11.5707 27.6021 11.1402 26.2884 10.643 24.804C10.0418 23.0525 9.64844 21.9985 9.50742 21.7907C8.86914 20.863 7.72617 20.3657 6.67227 20.5587C6.41992 20.6032 6.20469 20.6329 6.18984 20.6181C6.18242 20.6032 6.55352 19.6235 7.02109 18.4435L7.87461 16.2911L7.84492 15.5489C7.82266 14.9181 7.79297 14.7474 7.62227 14.4134C7.22891 13.6638 6.60547 13.1368 5.8707 12.9439C5.55898 12.8622 5.5293 12.84 5.54414 12.6544C5.59609 11.979 6.47187 9.91573 7.22148 8.72081C8.2457 7.07315 9.87109 5.43292 11.541 4.36417C12.6246 3.66651 14.2574 2.94659 15.4746 2.62745C16.15 2.45675 16.3059 2.34542 16.4172 1.99659C16.5285 1.60323 16.3578 1.22472 15.9941 1.06886C15.9732 1.06039 15.9541 1.05245 15.9363 1.04509C15.8691 1.01725 15.8215 0.997538 15.772 0.987766C15.6517 0.964052 15.52 0.99888 15.0684 1.11822C15.0218 1.13055 14.9717 1.14377 14.918 1.15792ZM5.82617 14.6509C5.96719 14.7622 6.13789 14.9552 6.20469 15.0814C6.44219 15.5341 6.37539 15.7939 5.3957 18.2653C4.88359 19.5567 4.40859 20.8185 4.3418 21.0708C4.17109 21.7388 4.12656 22.6071 4.22305 23.29C4.30469 23.854 5.26211 27.2458 5.42539 27.5427C5.6332 27.9435 6.31602 27.988 6.65 27.6318C6.91719 27.3423 6.88008 27.0232 6.3457 25.2271C6.07852 24.3364 5.86328 23.4903 5.86328 23.3419C5.86328 22.9931 6.10078 22.5403 6.39023 22.34C6.90234 21.9689 7.54063 22.0282 8.0082 22.481C8.26055 22.7259 8.35703 22.9485 9.07695 25.1009C10.0566 27.988 10.168 28.411 10.168 29.2349C10.168 30.6153 9.87852 31.2314 8.39414 33.0126C7.80781 33.7177 7.48867 34.2892 7.16211 35.1798L6.93945 35.8107L4.35664 35.8329L1.77383 35.8478L1.81836 35.6919C1.84805 35.6028 2.2043 34.3782 2.6125 32.9607L3.35469 30.3927L3.31758 29.6876C3.28789 29.0716 3.18398 28.604 2.41953 25.9099C1.61055 23.0079 1.55859 22.7927 1.55859 22.1618C1.55859 21.7907 1.60312 21.3157 1.6625 21.1005C1.80352 20.5661 4.00039 15.1482 4.17852 14.8884C4.52734 14.3911 5.32891 14.2724 5.82617 14.6509ZM33.3687 14.5396C33.5395 14.6138 33.7398 14.7771 33.8215 14.8884C34.0293 15.2001 36.2559 20.7368 36.3672 21.2341C36.4191 21.479 36.4488 21.9317 36.4266 22.3474C36.3969 22.956 36.2855 23.431 35.5508 26.0138C34.816 28.6189 34.7121 29.0716 34.6824 29.6876L34.6453 30.3927L35.3875 32.9607C35.7957 34.3782 36.152 35.6028 36.1816 35.6919L36.2262 35.8478L33.6434 35.8329L31.0605 35.8107L30.8379 35.1798C30.5113 34.2892 30.1922 33.7177 29.6059 33.0126C28.3961 31.5579 28.1066 31.0755 27.8617 30.1329C27.7281 29.6208 27.7504 28.7525 27.9137 28.1661C28.1957 27.1196 29.7395 22.7333 29.8879 22.5626C30.118 22.2806 30.5262 22.1025 30.927 22.1025C31.5504 22.1025 32.1367 22.7036 32.1367 23.3493C32.1367 23.4978 31.9215 24.3513 31.6543 25.2419C31.1199 27.038 31.0828 27.3423 31.35 27.6318C31.684 27.988 32.3668 27.9435 32.5746 27.5501C32.7379 27.2384 33.6879 23.8689 33.777 23.3048C33.8809 22.5626 33.8289 21.6868 33.6285 20.9669C33.5469 20.6775 33.0719 19.4306 32.5746 18.1837C31.6246 15.7939 31.5578 15.5341 31.7953 15.0814C32.0996 14.495 32.7676 14.265 33.3687 14.5396ZM16.0387 7.98604C16.1203 7.88214 16.2984 7.76339 16.4246 7.72628C16.7883 7.62237 21.1375 7.63722 21.4492 7.74112C21.9465 7.91182 21.9688 8.038 21.9688 10.6653V12.9884H24.3512C25.8355 12.9884 26.7855 13.0181 26.8746 13.0626C27.216 13.2482 27.2383 13.4189 27.2383 15.9942C27.2383 18.5103 27.2234 18.6142 26.9117 18.8665C26.7707 18.9853 26.5184 19.0001 24.366 19.0001H21.9688V21.2935C21.9688 22.7333 21.9391 23.661 21.8871 23.8095C21.7313 24.2696 21.7164 24.2696 18.8961 24.2696H16.3355L16.1277 24.0915L15.9199 23.9134L15.8977 21.4567L15.8754 19.0001H13.4633H11.0437L10.8285 18.7849L10.6133 18.5696V15.9942V13.4189L10.8285 13.2036L11.0437 12.9884H13.4633H15.8828V10.5837C15.8828 8.2755 15.8902 8.17901 16.0387 7.98604ZM20.4102 14.0794V11.645V9.20323H18.9258H17.4414V11.556C17.4414 14.1536 17.434 14.1982 16.9961 14.4134C16.766 14.5321 16.4766 14.547 14.4578 14.547H12.1719V15.9942V17.4341L14.584 17.4564L16.9961 17.4786L17.1965 17.6864L17.4043 17.8868L17.4266 20.336L17.4488 22.7853H18.9258H20.4102V20.3509C20.4102 17.9833 20.4176 17.9091 20.566 17.7458C20.6477 17.6567 20.8035 17.5528 20.9074 17.5083C21.0039 17.4712 22.1246 17.4415 23.3863 17.4415H25.6797V15.9942V14.547H23.4605C22.2434 14.547 21.1449 14.5247 21.0113 14.5024C20.8852 14.4728 20.6996 14.3689 20.5957 14.2649L20.4102 14.0794Z" fill="white"/>
</svg>
