<svg width="32" height="21" viewBox="0 0 32 21" fill="none" xmlns="http://www.w3.org/2000/svg">
<path id="Vector" d="M24.2532 13.0667C22.9134 13.0667 21.6036 12.6943 20.4895 11.9967C19.3755 11.299 18.5072 10.3073 17.9944 9.14711C17.4817 7.9869 17.3475 6.71024 17.6089 5.47856C17.8703 4.24689 18.5155 3.11553 19.463 2.22754C20.4104 1.33956 21.6175 0.734829 22.9316 0.489834C24.2457 0.244841 25.6078 0.370581 26.8457 0.851154C28.0836 1.33173 29.1416 2.14555 29.886 3.18972C30.6304 4.23388 31.0277 5.46148 31.0277 6.71728L31.0587 7.62434C31.0587 10.9923 29.6312 14.2223 27.0903 16.6038C24.5494 18.9853 21.1031 20.3232 17.5097 20.3232V16.695C18.7812 16.6982 20.0407 16.4651 21.2155 16.0092C22.3903 15.5534 23.457 14.8838 24.3539 14.0391C24.7025 13.713 25.0241 13.3624 25.3159 12.9905C24.9694 13.0413 24.6152 13.0685 24.2552 13.0685L24.2532 13.0667ZM6.83316 13.0667C5.4933 13.0667 4.18352 12.6943 3.06946 11.9967C1.95541 11.299 1.08711 10.3073 0.574362 9.14711C0.0616188 7.9869 -0.0725384 6.71024 0.188856 5.47856C0.450251 4.24689 1.09546 3.11553 2.04288 2.22754C2.99031 1.33956 4.19741 0.734829 5.51153 0.489834C6.82565 0.244841 8.18777 0.370581 9.42564 0.851154C10.6635 1.33173 11.7215 2.14555 12.4659 3.18972C13.2103 4.23388 13.6076 5.46148 13.6076 6.71728L13.6386 7.62434C13.6386 10.9923 12.2111 14.2223 9.67021 16.6038C7.12929 18.9853 3.68306 20.3232 0.0896549 20.3232V16.695C1.36112 16.6982 2.62066 16.4651 3.79542 16.0092C4.97019 15.5534 6.03688 14.8838 6.93381 14.0391C7.28242 13.713 7.604 13.3624 7.89579 12.9905C7.54932 13.0413 7.19511 13.0667 6.83316 13.0667Z" fill="#F8F9FE"/>
</svg>
