<svg width="29" height="24" viewBox="0 0 29 24" fill="none" xmlns="http://www.w3.org/2000/svg">
<path id="Vector" d="M28.6666 3.33317C27.64 3.79984 26.5333 4.1065 25.3866 4.25317C26.56 3.5465 27.4667 2.4265 27.8933 1.07984C26.7866 1.7465 25.56 2.21317 24.2666 2.47984C23.2133 1.33317 21.7333 0.666504 20.0533 0.666504C16.92 0.666504 14.36 3.2265 14.36 6.3865C14.36 6.83984 14.4133 7.27984 14.5066 7.69317C9.75998 7.45317 5.53332 5.17317 2.71998 1.71984C2.22665 2.55984 1.94665 3.5465 1.94665 4.5865C1.94665 6.57317 2.94665 8.33317 4.49332 9.33317C3.54665 9.33317 2.66665 9.0665 1.89332 8.6665V8.7065C1.89332 11.4798 3.86665 13.7998 6.47998 14.3198C5.64095 14.5494 4.76011 14.5814 3.90665 14.4132C4.26879 15.5498 4.97803 16.5444 5.93467 17.2571C6.89131 17.9698 8.04725 18.3648 9.23998 18.3865C7.21816 19.9871 4.71198 20.8523 2.13332 20.8398C1.67998 20.8398 1.22665 20.8132 0.773315 20.7598C3.30665 22.3865 6.31998 23.3332 9.54665 23.3332C20.0533 23.3332 25.8267 14.6132 25.8267 7.05317C25.8267 6.79984 25.8266 6.55984 25.8133 6.3065C26.9333 5.5065 27.8933 4.49317 28.6666 3.33317Z" fill="white"/>
</svg>
