<svg width="27" height="28" viewBox="0 0 27 28" fill="none" xmlns="http://www.w3.org/2000/svg">
<path id="Vector" d="M8.06671 0.666504H19.2667C23.5334 0.666504 27 4.13317 27 8.39984V19.5998C27 21.6508 26.1853 23.6178 24.735 25.0681C23.2847 26.5184 21.3177 27.3332 19.2667 27.3332H8.06671C3.80004 27.3332 0.333374 23.8665 0.333374 19.5998V8.39984C0.333374 6.34883 1.14813 4.38183 2.59842 2.93155C4.0487 1.48126 6.0157 0.666504 8.06671 0.666504ZM7.80004 3.33317C6.527 3.33317 5.3061 3.83888 4.40593 4.73906C3.50575 5.63923 3.00004 6.86013 3.00004 8.13317V19.8665C3.00004 22.5198 5.14671 24.6665 7.80004 24.6665H19.5334C20.8064 24.6665 22.0273 24.1608 22.9275 23.2606C23.8277 22.3604 24.3334 21.1395 24.3334 19.8665V8.13317C24.3334 5.47984 22.1867 3.33317 19.5334 3.33317H7.80004ZM20.6667 5.33317C21.1087 5.33317 21.5327 5.50877 21.8452 5.82133C22.1578 6.13389 22.3334 6.55781 22.3334 6.99984C22.3334 7.44186 22.1578 7.86579 21.8452 8.17835C21.5327 8.49091 21.1087 8.6665 20.6667 8.6665C20.2247 8.6665 19.8008 8.49091 19.4882 8.17835C19.1756 7.86579 19 7.44186 19 6.99984C19 6.55781 19.1756 6.13389 19.4882 5.82133C19.8008 5.50877 20.2247 5.33317 20.6667 5.33317ZM13.6667 7.33317C15.4348 7.33317 17.1305 8.03555 18.3808 9.28579C19.631 10.536 20.3334 12.2317 20.3334 13.9998C20.3334 15.7679 19.631 17.4636 18.3808 18.7139C17.1305 19.9641 15.4348 20.6665 13.6667 20.6665C11.8986 20.6665 10.2029 19.9641 8.95266 18.7139C7.70242 17.4636 7.00004 15.7679 7.00004 13.9998C7.00004 12.2317 7.70242 10.536 8.95266 9.28579C10.2029 8.03555 11.8986 7.33317 13.6667 7.33317ZM13.6667 9.99984C12.6058 9.99984 11.5884 10.4213 10.8383 11.1714C10.0881 11.9216 9.66671 12.939 9.66671 13.9998C9.66671 15.0607 10.0881 16.0781 10.8383 16.8283C11.5884 17.5784 12.6058 17.9998 13.6667 17.9998C14.7276 17.9998 15.745 17.5784 16.4951 16.8283C17.2453 16.0781 17.6667 15.0607 17.6667 13.9998C17.6667 12.939 17.2453 11.9216 16.4951 11.1714C15.745 10.4213 14.7276 9.99984 13.6667 9.99984Z" fill="white"/>
</svg>
