<svg width="13" height="16" viewBox="0 0 13 16" fill="none" xmlns="http://www.w3.org/2000/svg">
<path id="Vector" d="M13 1.00027C13.0001 0.810648 12.9462 0.624917 12.8448 0.464742C12.7434 0.304568 12.5985 0.176552 12.4271 0.0956298C12.2557 0.014707 12.0649 -0.0157876 11.8768 0.00770329C11.6888 0.0311942 11.5113 0.107702 11.365 0.228303L0.36583 9.28994C-0.357721 9.88592 0.0640173 11.0619 1.00144 11.0619H6.58997C6.80495 11.0619 7.01741 11.1081 7.21295 11.1975C7.40849 11.2868 7.58253 11.4173 7.72327 11.5799L11.2451 15.6527C11.8507 16.3527 13 15.9237 13 14.9977V1.00027ZM1.00144 10.0619L12.0006 1.00027V14.9977L8.4788 10.9259C8.2443 10.6548 7.95426 10.4373 7.62836 10.2882C7.30245 10.1391 6.94832 10.062 6.58997 10.0619H1.00144Z" fill="white"/>
</svg>
