<svg width="15" height="14" viewBox="0 0 15 14" fill="none" xmlns="http://www.w3.org/2000/svg">
<path id="Vector" d="M3.465 5.8425C4.545 7.965 6.285 9.6975 8.4075 10.785L10.0575 9.135C10.26 8.9325 10.56 8.865 10.8225 8.955C11.6625 9.2325 12.57 9.3825 13.5 9.3825C13.9125 9.3825 14.25 9.72 14.25 10.1325V12.75C14.25 13.1625 13.9125 13.5 13.5 13.5C6.4575 13.5 0.75 7.7925 0.75 0.75C0.75 0.3375 1.0875 0 1.5 0H4.125C4.5375 0 4.875 0.3375 4.875 0.75C4.875 1.6875 5.025 2.5875 5.3025 3.4275C5.385 3.69 5.325 3.9825 5.115 4.1925L3.465 5.8425Z" fill="black"/>
</svg>
