<svg width="14" height="14" viewBox="0 0 14 14" fill="none" xmlns="http://www.w3.org/2000/svg">
<path id="Vector" d="M2.715 6.15481C3.795 8.2744 5.535 10.0045 7.6575 11.0905L9.3075 9.4428C9.51 9.24058 9.81 9.17317 10.0725 9.26305C10.9125 9.54017 11.82 9.68996 12.75 9.68996C13.1625 9.68996 13.5 10.027 13.5 10.4389V13.0528C13.5 13.4648 13.1625 13.8018 12.75 13.8018C5.7075 13.8018 0 8.10214 0 1.06929C0 0.65735 0.3375 0.320312 0.75 0.320312H3.375C3.7875 0.320312 4.125 0.65735 4.125 1.06929C4.125 2.0055 4.275 2.90427 4.5525 3.74312C4.635 4.00526 4.575 4.29736 4.365 4.50707L2.715 6.15481Z" fill="#E0FFFC"/>
</svg>
